<svg width="16" height="16" viewBox="0 0 16 16" fill="none" xmlns="http://www.w3.org/2000/svg">
<g clip-path="url(#clip0_115_1034)">
<path d="M8 16C6.41775 16 4.87103 15.5308 3.55544 14.6518C2.23984 13.7727 1.21446 12.5233 0.608962 11.0615C0.00346046 9.59966 -0.154965 7.99113 0.153716 6.43928C0.462398 4.88743 1.22432 3.46197 2.34314 2.34315C3.46196 1.22433 4.88743 0.462403 6.43928 0.153721C7.99113 -0.154961 9.59966 0.00346601 11.0615 0.608967C12.5233 1.21447 13.7727 2.23985 14.6518 3.55544C15.5308 4.87104 16 6.41775 16 8C15.9977 10.121 15.1541 12.1545 13.6543 13.6543C12.1545 15.1541 10.121 15.9977 8 16ZM8 1.33334C6.68146 1.33334 5.39252 1.72433 4.2962 2.45687C3.19987 3.18942 2.34539 4.23061 1.8408 5.44878C1.33622 6.66695 1.20419 8.0074 1.46143 9.30061C1.71866 10.5938 2.3536 11.7817 3.28595 12.714C4.2183 13.6464 5.40619 14.2813 6.6994 14.5386C7.9926 14.7958 9.33305 14.6638 10.5512 14.1592C11.7694 13.6546 12.8106 12.8001 13.5431 11.7038C14.2757 10.6075 14.6667 9.31855 14.6667 8C14.6647 6.23249 13.9617 4.53792 12.7119 3.2881C11.4621 2.03828 9.76751 1.33528 8 1.33334ZM8.94267 10.276L12.084 7.13334L11.1413 6.19267L8 9.33334L4.88467 6.218L3.942 7.16067L7.05733 10.276C7.30737 10.526 7.64645 10.6664 8 10.6664C8.35355 10.6664 8.69263 10.526 8.94267 10.276Z" fill="#4880FF"/>
</g>
<defs>
<clipPath id="clip0_115_1034">
<rect width="16" height="16" fill="white" transform="translate(16) rotate(90)"/>
</clipPath>
</defs>
</svg>
