<svg width="20" height="20" viewBox="0 0 20 20" fill="none" xmlns="http://www.w3.org/2000/svg">
<path d="M8.55102 10.8118C8.44649 10.7056 8.36352 10.5792 8.3069 10.4399C8.25028 10.3007 8.22113 10.1513 8.22113 10.0004C8.22113 9.84958 8.25028 9.70021 8.3069 9.56095C8.36352 9.42169 8.44649 9.2953 8.55102 9.18906L13.6701 3.95508C13.7746 3.84884 13.8576 3.72245 13.9142 3.58319C13.9708 3.44393 14 3.29456 14 3.1437C14 2.99283 13.9708 2.84347 13.9142 2.70421C13.8576 2.56495 13.7746 2.43855 13.6701 2.33232C13.4611 2.11947 13.1785 2 12.8838 2C12.5892 2 12.3065 2.11947 12.0976 2.33232L6.97849 7.57773C6.35193 8.22055 6 9.09192 6 10.0004C6 10.909 6.35193 11.7803 6.97849 12.4232L12.0976 17.6686C12.3053 17.8797 12.5857 17.9987 12.8783 18C13.025 18.0008 13.1705 17.972 13.3064 17.9152C13.4423 17.8583 13.5659 17.7745 13.6701 17.6686C13.7746 17.5623 13.8576 17.4359 13.9142 17.2967C13.9708 17.1574 14 17.0081 14 16.8572C14 16.7063 13.9708 16.557 13.9142 16.4177C13.8576 16.2784 13.7746 16.152 13.6701 16.0458L8.55102 10.8118Z" fill="white"/>
</svg>
