<svg width="18" height="18" viewBox="0 0 18 18" fill="none" xmlns="http://www.w3.org/2000/svg">
<g clip-path="url(#clip0_115_1078)">
<path d="M7.40855 13.5915C7.6175 13.8006 7.8656 13.9664 8.13868 14.0796C8.41175 14.1928 8.70445 14.251 9.00005 14.251C9.29564 14.251 9.58834 14.1928 9.86142 14.0796C10.1345 13.9664 10.3826 13.8006 10.5915 13.5915L12.9998 11.1833C13.1289 11.0404 13.1982 10.8535 13.1932 10.661C13.1883 10.4685 13.1095 10.2853 12.9732 10.1494C12.837 10.0134 12.6536 9.93499 12.4611 9.93046C12.2687 9.92592 12.0818 9.99558 11.9393 10.125L9.7448 12.3203L9.75005 0.75C9.75005 0.551088 9.67103 0.360322 9.53038 0.21967C9.38972 0.0790177 9.19896 0 9.00005 0C8.80113 0 8.61037 0.0790177 8.46972 0.21967C8.32906 0.360322 8.25005 0.551088 8.25005 0.75L8.2433 12.306L6.0608 10.125C5.92007 9.98437 5.72923 9.9054 5.53028 9.90547C5.33133 9.90555 5.14055 9.98465 4.99992 10.1254C4.85929 10.2661 4.78033 10.4569 4.7804 10.6559C4.78047 10.8548 4.85957 11.0456 5.0003 11.1863L7.40855 13.5915Z" fill="white"/>
<path d="M17.25 12C17.0511 12 16.8603 12.079 16.7197 12.2197C16.579 12.3603 16.5 12.5511 16.5 12.75V15.75C16.5 15.9489 16.421 16.1397 16.2803 16.2803C16.1397 16.421 15.9489 16.5 15.75 16.5H2.25C2.05109 16.5 1.86032 16.421 1.71967 16.2803C1.57902 16.1397 1.5 15.9489 1.5 15.75V12.75C1.5 12.5511 1.42098 12.3603 1.28033 12.2197C1.13968 12.079 0.948912 12 0.75 12C0.551088 12 0.360322 12.079 0.21967 12.2197C0.0790176 12.3603 0 12.5511 0 12.75L0 15.75C0 16.3467 0.237053 16.919 0.65901 17.341C1.08097 17.7629 1.65326 18 2.25 18H15.75C16.3467 18 16.919 17.7629 17.341 17.341C17.7629 16.919 18 16.3467 18 15.75V12.75C18 12.5511 17.921 12.3603 17.7803 12.2197C17.6397 12.079 17.4489 12 17.25 12Z" fill="white"/>
</g>
<defs>
<clipPath id="clip0_115_1078">
<rect width="18" height="18" fill="white"/>
</clipPath>
</defs>
</svg>
