<svg width="20" height="20" viewBox="0 0 20 20" fill="none" xmlns="http://www.w3.org/2000/svg">
<g clip-path="url(#clip0_115_225)">
<path d="M11.6666 20C11.4863 20 11.3109 19.9415 11.1666 19.8333L7.83328 17.3333C7.72978 17.2557 7.64578 17.1551 7.58792 17.0393C7.53006 16.9236 7.49994 16.796 7.49994 16.6667V11.9833L1.65328 5.40583C1.23804 4.9374 0.966926 4.35901 0.87251 3.7402C0.778094 3.12138 0.864397 2.48846 1.12105 1.91751C1.37769 1.34656 1.79377 0.861882 2.31926 0.521721C2.84475 0.181561 3.4573 0.000395349 4.08328 0L15.9166 0C16.5425 0.000734209 17.1549 0.182199 17.6802 0.522589C18.2055 0.862978 18.6213 1.34781 18.8777 1.91882C19.134 2.48983 19.2201 3.12273 19.1254 3.74146C19.0308 4.36018 18.7595 4.93841 18.3441 5.40667L12.4999 11.9833V19.1667C12.4999 19.3877 12.4121 19.5996 12.2559 19.7559C12.0996 19.9122 11.8876 20 11.6666 20ZM9.16661 16.25L10.8333 17.5V11.6667C10.8334 11.4626 10.9085 11.2657 11.0441 11.1133L17.1008 4.29917C17.3027 4.0709 17.4345 3.7892 17.4803 3.48788C17.5261 3.18655 17.4839 2.87842 17.3589 2.60046C17.2339 2.32251 17.0313 2.08655 16.7754 1.92091C16.5196 1.75527 16.2214 1.66699 15.9166 1.66667H4.08328C3.77865 1.66713 3.48063 1.75546 3.22495 1.92105C2.96926 2.08665 2.76678 2.3225 2.64178 2.60029C2.51678 2.87809 2.47457 3.18605 2.52022 3.48723C2.56586 3.78842 2.69742 4.07004 2.89911 4.29833L8.95661 11.1133C9.09195 11.2659 9.16667 11.4627 9.16661 11.6667V16.25Z" fill="white"/>
</g>
<defs>
<clipPath id="clip0_115_225">
<rect width="20" height="20" fill="white"/>
</clipPath>
</defs>
</svg>
