<svg width="20" height="20" viewBox="0 0 20 20" fill="none" xmlns="http://www.w3.org/2000/svg">
<path d="M11.449 10.8118C11.5535 10.7056 11.6365 10.5792 11.6931 10.4399C11.7497 10.3007 11.7789 10.1513 11.7789 10.0004C11.7789 9.84958 11.7497 9.70021 11.6931 9.56095C11.6365 9.42169 11.5535 9.2953 11.449 9.18906L6.32989 3.95508C6.22536 3.84884 6.14239 3.72245 6.08577 3.58319C6.02915 3.44393 6 3.29456 6 3.1437C6 2.99283 6.02915 2.84347 6.08577 2.70421C6.14239 2.56495 6.22536 2.43855 6.32989 2.33232C6.53885 2.11947 6.82152 2 7.11616 2C7.4108 2 7.69346 2.11947 7.90242 2.33232L13.0215 7.57773C13.6481 8.22055 14 9.09192 14 10.0004C14 10.909 13.6481 11.7803 13.0215 12.4232L7.90242 17.6686C7.69469 17.8797 7.41432 17.9987 7.12174 18C6.97496 18.0008 6.82946 17.972 6.69358 17.9152C6.55769 17.8583 6.43411 17.7745 6.32989 17.6686C6.22536 17.5623 6.14239 17.4359 6.08577 17.2967C6.02915 17.1574 6 17.0081 6 16.8572C6 16.7063 6.02915 16.557 6.08577 16.4177C6.14239 16.2784 6.22536 16.152 6.32989 16.0458L11.449 10.8118Z" fill="white"/>
</svg>
