<svg width="18" height="18" viewBox="0 0 18 18" fill="none" xmlns="http://www.w3.org/2000/svg">
<g clip-path="url(#clip0_18_2956)">
<path d="M8.25 11.25H6.75V9.75H8.25V11.25ZM11.25 9.75H9.75V11.25H11.25V9.75ZM8.25 12.75H6.75V14.25H8.25V12.75ZM11.25 12.75H9.75V14.25H11.25V12.75ZM8.25 3.75H6.75V5.25H8.25V3.75ZM11.25 3.75H9.75V5.25H11.25V3.75ZM8.25 6.75H6.75V8.25H8.25V6.75ZM11.25 6.75H9.75V8.25H11.25V6.75ZM18 6C18 4.7595 16.9905 3.75 15.75 3.75H14.25V2.25C14.25 1.0095 13.2405 0 12 0H6C4.7595 0 3.75 1.0095 3.75 2.25V6.75H2.25C1.0095 6.75 0 7.7595 0 9V18H18V6ZM1.5 9C1.5 8.586 1.83675 8.25 2.25 8.25H5.25V2.25C5.25 1.836 5.58675 1.5 6 1.5H12C12.4132 1.5 12.75 1.836 12.75 2.25V5.25H15.75C16.1632 5.25 16.5 5.586 16.5 6V16.5H1.5V9ZM15 9.75H13.5V11.25H15V9.75ZM15 12.75H13.5V14.25H15V12.75ZM4.5 9.75H3V11.25H4.5V9.75ZM4.5 12.75H3V14.25H4.5V12.75ZM15 6.75H13.5V8.25H15V6.75Z" fill="#202224"/>
</g>
<defs>
<clipPath id="clip0_18_2956">
<rect width="18" height="18" fill="white"/>
</clipPath>
</defs>
</svg>
