<svg width="16" height="16" viewBox="0 0 16 16" fill="none" xmlns="http://www.w3.org/2000/svg">
<rect width="16" height="16" fill="#1E1E1E"/>
<g id="Subscriptions" clip-path="url(#clip0_18_2736)">
<rect width="1689" height="780" transform="translate(-380 -173)" fill="white"/>
<rect id="Main Bg" x="-141" y="-173" width="1450" height="779" fill="#F5F6FA"/>
<g id="Order List">
<rect id="Bg" x="-109.85" y="-16.85" width="1395.7" height="359.7" rx="13.85" fill="white" stroke="#B9B9B9" stroke-width="0.3"/>
<g id="ID- Status">
<path id="Bg_2" d="M-96 -16.7002H1272C1279.57 -16.7002 1285.7 -10.5663 1285.7 -3V31.7002H-109.7V-3C-109.7 -10.5663 -103.566 -16.7002 -96 -16.7002Z" fill="#F3F6FE" stroke="#D5D5D5" stroke-width="0.6"/>
<g id="Group 5">
</g>
</g>
<g id="caret-down 1">
<g id="Group 41">
<path id="Vector" d="M3.80672 8.57178H12.1622C12.31 8.5724 12.4543 8.61683 12.5769 8.69946C12.6994 8.78209 12.7947 8.89921 12.8507 9.036C12.9067 9.17279 12.9209 9.32311 12.8914 9.46796C12.862 9.61281 12.7903 9.74567 12.6853 9.84976L8.51508 14.02C8.4456 14.0901 8.36295 14.1457 8.27187 14.1836C8.1808 14.2216 8.08312 14.2411 7.98446 14.2411C7.8858 14.2411 7.78811 14.2216 7.69704 14.1836C7.60597 14.1457 7.52331 14.0901 7.45383 14.02L3.28357 9.84976C3.17863 9.74567 3.1069 9.61281 3.07747 9.46796C3.04803 9.32311 3.06221 9.17279 3.11821 9.036C3.1742 8.89921 3.2695 8.78209 3.39206 8.69946C3.51461 8.61683 3.65892 8.5724 3.80672 8.57178Z" fill="#4880FF"/>
<path id="Vector_2" d="M3.80672 7.45068H12.1622C12.31 7.45006 12.4543 7.40563 12.5769 7.323C12.6994 7.24037 12.7947 7.12325 12.8507 6.98646C12.9067 6.84967 12.9209 6.69935 12.8914 6.5545C12.862 6.40965 12.7903 6.27679 12.6853 6.1727L8.51508 2.00244C8.4456 1.93239 8.36295 1.8768 8.27187 1.83885C8.1808 1.80091 8.08312 1.78138 7.98446 1.78138C7.8858 1.78138 7.78811 1.80091 7.69704 1.83885C7.60597 1.8768 7.52331 1.93239 7.45383 2.00244L3.28357 6.1727C3.17863 6.27679 3.1069 6.40965 3.07747 6.5545C3.04803 6.69935 3.06221 6.84967 3.11821 6.98646C3.1742 7.12325 3.2695 7.24037 3.39206 7.323C3.51461 7.40563 3.65892 7.45006 3.80672 7.45068Z" fill="#4880FF"/>
</g>
</g>
</g>
<g id="Separator">
</g>
</g>
<defs>
<clipPath id="clip0_18_2736">
<rect width="1689" height="780" fill="white" transform="translate(-380 -173)"/>
</clipPath>
</defs>
</svg>
