<svg width="15" height="15" viewBox="0 0 15 15" fill="none" xmlns="http://www.w3.org/2000/svg">
<path d="M14.8882 6.98812C14.3394 5.78812 12.1875 1.875 7.50004 1.875C2.81254 1.875 0.660667 5.78812 0.111917 6.98812C0.038253 7.14894 0.00012207 7.32374 0.00012207 7.50063C0.00012207 7.67751 0.038253 7.85231 0.111917 8.01312C0.660667 9.21187 2.81254 13.125 7.50004 13.125C12.1875 13.125 14.3394 9.21187 14.8882 8.01188C14.9617 7.85124 14.9997 7.67666 14.9997 7.5C14.9997 7.32334 14.9617 7.14876 14.8882 6.98812ZM7.50004 11.875C3.55817 11.875 1.71879 8.52125 1.25004 7.50688C1.71879 6.47875 3.55817 3.125 7.50004 3.125C11.4325 3.125 13.2725 6.46438 13.75 7.5C13.2725 8.53562 11.4325 11.875 7.50004 11.875Z" fill="black"/>
<path d="M7.5 4.375C6.88193 4.375 6.27775 4.55828 5.76384 4.90166C5.24994 5.24504 4.8494 5.7331 4.61288 6.30411C4.37635 6.87513 4.31447 7.50347 4.43505 8.10966C4.55563 8.71585 4.85325 9.27267 5.29029 9.70971C5.72733 10.1467 6.28415 10.4444 6.89034 10.565C7.49654 10.6855 8.12487 10.6236 8.69589 10.3871C9.26691 10.1506 9.75496 9.75006 10.0983 9.23616C10.4417 8.72225 10.625 8.11807 10.625 7.5C10.624 6.6715 10.2944 5.87722 9.70861 5.29139C9.12278 4.70555 8.3285 4.37599 7.5 4.375ZM7.5 9.375C7.12916 9.375 6.76665 9.26503 6.45831 9.05901C6.14996 8.85298 5.90964 8.56014 5.76773 8.21753C5.62581 7.87492 5.58868 7.49792 5.66103 7.13421C5.73338 6.77049 5.91195 6.4364 6.17418 6.17417C6.4364 5.91195 6.77049 5.73337 7.13421 5.66103C7.49792 5.58868 7.87492 5.62581 8.21753 5.76773C8.56014 5.90964 8.85298 6.14996 9.05901 6.45831C9.26503 6.76665 9.375 7.12916 9.375 7.5C9.375 7.99728 9.17746 8.47419 8.82583 8.82583C8.4742 9.17746 7.99728 9.375 7.5 9.375Z" fill="black"/>
</svg>
