<svg width="25" height="26" viewBox="0 0 25 26" fill="none" xmlns="http://www.w3.org/2000/svg">
<path d="M21.3675 0.847345C22.1543 4.43877 22.9308 8.03106 23.6343 11.6407C23.6999 11.9747 23.7669 12.3084 23.8348 12.6419C24.0496 13.708 24.2384 14.7569 24.3315 15.8415C24.2285 15.8415 24.1255 15.8415 24.0195 15.8415C23.9744 15.9632 23.9294 16.0849 23.883 16.2103C23.7075 16.639 23.7075 16.639 23.3955 17.1176C22.6048 17.0383 22.0807 16.6399 21.4455 16.1904C21.3439 16.1204 21.2424 16.0504 21.1377 15.9782C20.8477 15.7766 20.5612 15.5709 20.2755 15.3629C20.1291 15.257 19.9827 15.1511 19.8319 15.042C19.1478 14.3971 19.0993 13.5435 18.9592 12.6413C18.8281 11.8373 18.6858 11.0472 18.4815 10.2585C18.2792 9.46966 18.1245 8.67819 17.9842 7.87584C17.9535 7.70296 17.9535 7.70296 17.9221 7.52659C17.8226 6.94218 17.7556 6.38561 17.7795 5.79221C17.6697 5.82121 17.5599 5.8502 17.4468 5.88007C15.5206 6.38147 13.6 6.78212 11.637 7.09822C11.4627 7.12679 11.2883 7.15535 11.1086 7.18479C9.54067 7.43072 8.45679 7.59175 7.09356 6.64959C6.98196 6.57293 6.87035 6.49627 6.75536 6.41729C6.18032 5.97581 5.95361 5.7473 5.7627 5.01895C5.76716 4.45785 5.8108 3.94806 5.92357 3.39954C6.52412 3.01897 7.17939 2.95647 7.86503 2.85682C8.13323 2.81571 8.4014 2.7744 8.66955 2.7329C8.80838 2.71159 8.94722 2.69027 9.09026 2.66831C9.77115 2.5611 10.4499 2.44193 11.1288 2.32221C11.3308 2.28675 11.3308 2.28675 11.5369 2.25058C11.9473 2.17846 12.3577 2.10612 12.768 2.03371C15.9516 1.47223 15.9516 1.47223 17.5282 1.2295C17.8619 1.17778 18.1949 1.12216 18.5278 1.06543C18.6798 1.03952 18.8319 1.01361 18.9885 0.986918C19.1421 0.960187 19.2958 0.933456 19.454 0.905916C20.0941 0.832323 20.7242 0.835776 21.3675 0.847345Z" fill="#4880FF"/>
<path d="M15.5956 8.98244C15.8595 9.58726 15.9784 10.1416 16.0636 10.7969C16.1363 11.3526 16.2235 11.8672 16.3762 12.4063C16.5345 12.9806 16.6127 13.5244 16.6779 14.1167C16.8074 15.1979 17.0326 16.2269 17.3116 17.2771C17.6988 18.7537 18.0128 20.1884 18.1708 21.7104C18.2437 22.1956 18.374 22.5703 18.5596 23.0195C18.6306 23.6971 18.6458 24.011 18.2574 24.5747C18.1512 24.6932 18.045 24.8116 17.9356 24.9336C17.8584 25.1705 17.8584 25.1705 17.7796 25.4122C16.8961 25.2984 16.3219 24.8221 15.6078 24.3087C15.1509 23.9764 15.1509 23.9764 14.7157 23.7691C14.0973 23.4477 13.7942 23.1906 13.5207 22.5272C13.3422 21.8436 13.2127 21.1649 13.0997 20.4673C13.0742 20.315 13.0488 20.1627 13.0226 20.0057C12.9122 19.3418 12.8035 18.6776 12.6999 18.0125C12.5435 17.0138 12.3593 16.0447 12.0881 15.0713C12.0077 14.7249 12.0077 14.7249 12.0077 14.0868C11.1885 14.2533 10.3698 14.4219 9.55189 14.5946C7.97349 14.9261 6.39461 15.2474 4.80245 15.5025C4.61382 15.5341 4.61382 15.5341 4.42137 15.5663C2.89497 15.7997 1.86878 15.3248 0.63984 14.4252C0.201084 14.0432 0.153082 13.9327 0 13.3248C0.00502029 12.763 0.0469095 12.2451 0.151733 11.6941C0.703546 11.3655 1.24237 11.2618 1.86772 11.1458C1.97749 11.1254 2.08727 11.1051 2.20036 11.0841C3.1578 10.9097 4.11888 10.7633 5.08109 10.6196C6.28746 10.4379 7.49006 10.2352 8.69268 10.0292C8.89117 9.9953 9.08966 9.96136 9.29417 9.92639C10.2552 9.76166 11.216 9.59545 12.1765 9.42733C12.3475 9.3976 12.5186 9.36788 12.6949 9.33725C13.0146 9.28166 13.3342 9.22554 13.6537 9.16878C13.796 9.1441 13.9384 9.11941 14.085 9.09397C14.208 9.07232 14.331 9.05066 14.4577 9.02835C14.8404 8.97926 15.2103 8.97464 15.5956 8.98244Z" fill="#4880FF"/>
</svg>
